<mxfile host="65bd71144e">
    <diagram id="KRD2O5vE5Nt6TvtWallu" name="第 1 页">
        <mxGraphModel dx="1006" dy="513" grid="1" gridSize="10" guides="1" tooltips="1" connect="1" arrows="1" fold="1" page="1" pageScale="1" pageWidth="827" pageHeight="1169" math="0" shadow="0">
            <root>
                <mxCell id="0"/>
                <mxCell id="1" parent="0"/>
                <mxCell id="5" style="edgeStyle=none;html=1;entryX=0;entryY=0.5;entryDx=0;entryDy=0;" edge="1" parent="1" source="2" target="3">
                    <mxGeometry relative="1" as="geometry"/>
                </mxCell>
                <mxCell id="10" style="edgeStyle=none;html=1;entryX=0.5;entryY=1;entryDx=0;entryDy=0;" edge="1" parent="1" source="2" target="4">
                    <mxGeometry relative="1" as="geometry">
                        <Array as="points">
                            <mxPoint x="200" y="340"/>
                            <mxPoint x="260" y="390"/>
                            <mxPoint x="330" y="420"/>
                            <mxPoint x="410" y="430"/>
                            <mxPoint x="520" y="430"/>
                            <mxPoint x="610" y="400"/>
                            <mxPoint x="660" y="350"/>
                        </Array>
                    </mxGeometry>
                </mxCell>
                <mxCell id="2" value="" style="swimlane;startSize=0;" vertex="1" parent="1">
                    <mxGeometry x="70" y="170" width="210" height="100" as="geometry"/>
                </mxCell>
                <mxCell id="6" style="edgeStyle=none;html=1;entryX=0;entryY=0.5;entryDx=0;entryDy=0;" edge="1" parent="1" source="3" target="4">
                    <mxGeometry relative="1" as="geometry"/>
                </mxCell>
                <mxCell id="3" value="" style="swimlane;startSize=0;" vertex="1" parent="1">
                    <mxGeometry x="370" y="170" width="140" height="100" as="geometry"/>
                </mxCell>
                <mxCell id="4" value="" style="swimlane;startSize=0;" vertex="1" parent="1">
                    <mxGeometry x="620" y="170" width="140" height="100" as="geometry"/>
                </mxCell>
                <mxCell id="7" value="Dad.vue" style="text;html=1;align=center;verticalAlign=middle;resizable=0;points=[];autosize=1;strokeColor=none;fillColor=none;" vertex="1" parent="1">
                    <mxGeometry x="110" y="140" width="60" height="20" as="geometry"/>
                </mxCell>
                <mxCell id="8" value="Son.vue" style="text;html=1;align=center;verticalAlign=middle;resizable=0;points=[];autosize=1;strokeColor=none;fillColor=none;" vertex="1" parent="1">
                    <mxGeometry x="370" y="140" width="60" height="20" as="geometry"/>
                </mxCell>
                <mxCell id="9" value="GradSon.vue" style="text;html=1;align=center;verticalAlign=middle;resizable=0;points=[];autosize=1;strokeColor=none;fillColor=none;" vertex="1" parent="1">
                    <mxGeometry x="645" y="140" width="90" height="20" as="geometry"/>
                </mxCell>
                <mxCell id="11" value="&lt;div style=&quot;color: rgb(225 , 228 , 232) ; background-color: rgb(36 , 41 , 46) ; font-family: &amp;#34;consolas&amp;#34; , &amp;#34;courier new&amp;#34; , monospace ; font-size: 14px ; line-height: 19px&quot;&gt;&lt;div&gt;provide:{name:&lt;span style=&quot;color: rgb(158 , 203 , 255)&quot;&gt;&quot; 白居易&quot;&lt;/span&gt;,age:&lt;span style=&quot;color: rgb(158 , 203 , 255)&quot;&gt;&quot;23&lt;/span&gt;}&lt;/div&gt;&lt;/div&gt;" style="text;html=1;align=center;verticalAlign=middle;resizable=0;points=[];autosize=1;strokeColor=none;fillColor=none;" vertex="1" parent="1">
                    <mxGeometry x="70" y="310" width="260" height="20" as="geometry"/>
                </mxCell>
                <mxCell id="12" value="&lt;div style=&quot;color: rgb(225 , 228 , 232) ; background-color: rgb(36 , 41 , 46) ; font-family: &amp;#34;consolas&amp;#34; , &amp;#34;courier new&amp;#34; , monospace ; font-size: 14px ; line-height: 19px&quot;&gt;inject:[&lt;span style=&quot;color: #9ecbff&quot;&gt;&quot;name&quot;&lt;/span&gt;,&lt;span style=&quot;color: #9ecbff&quot;&gt;&quot;age&quot;&lt;/span&gt;]&lt;/div&gt;" style="text;html=1;align=center;verticalAlign=middle;resizable=0;points=[];autosize=1;strokeColor=none;fillColor=none;" vertex="1" parent="1">
                    <mxGeometry x="590" y="310" width="180" height="20" as="geometry"/>
                </mxCell>
                <mxCell id="13" style="edgeStyle=none;html=1;exitX=0.5;exitY=0;exitDx=0;exitDy=0;entryX=0.636;entryY=0.01;entryDx=0;entryDy=0;entryPerimeter=0;" edge="1" parent="1" source="3" target="3">
                    <mxGeometry relative="1" as="geometry"/>
                </mxCell>
            </root>
        </mxGraphModel>
    </diagram>
</mxfile>